<!-- <svg xmlns="http://www.w3.org/2000/svg"
     height="24"
     viewBox="0 0 24 24"
     width="24">
  <path d="M0 0h24v24H0z"
        fill="none" />
  <path d="M6 19h4V5H6v14zm8-14v14h4V5h-4z" /></svg> -->

<svg aria-hidden="true"
     focusable="false"
     data-prefix="fas"
     data-icon="pause"
     class="svg-inline--fa fa-pause fa-w-14"
     role="img"
     xmlns="http://www.w3.org/2000/svg"
     height="24"
     width="24"
     viewBox="0 0 448 512">
  <path fill="currentColor"
        d="M144 479H48c-26.5 0-48-21.5-48-48V79c0-26.5 21.5-48 48-48h96c26.5 0 48 21.5 48 48v352c0 26.5-21.5 48-48 48zm304-48V79c0-26.5-21.5-48-48-48h-96c-26.5 0-48 21.5-48 48v352c0 26.5 21.5 48 48 48h96c26.5 0 48-21.5 48-48z"></path>
</svg>
