<!-- <svg xmlns="http://www.w3.org/2000/svg"
     height="24"
     viewBox="0 0 24 24"
     width="24">
  <path d="M0 0h24v24H0z"
        fill="none" />
  <path d="M18.4 10.6C16.55 8.99 14.15 8 11.5 8c-4.65 0-8.58 3.03-9.96 7.22L3.9 16c1.05-3.19 4.05-5.5 7.6-5.5 1.95 0 3.73.72 5.12 1.88L13 16h9V7l-3.6 3.6z" /></svg> -->

<svg aria-hidden="true"
     focusable="false"
     data-prefix="fas"
     data-icon="redo"
     role="img"
     xmlns="http://www.w3.org/2000/svg"
     height="24"
     width="24"
     viewBox="0 0 512 512">
  <path fill="currentColor"
        d="M500.33 0h-47.41a12 12 0 0 0-12 12.57l4 82.76A247.42 247.42 0 0 0 256 8C119.34 8 7.9 119.53 8 256.19 8.1 393.07 119.1 504 256 504a247.1 247.1 0 0 0 166.18-63.91 12 12 0 0 0 .48-17.43l-34-34a12 12 0 0 0-16.38-.55A176 176 0 1 1 402.1 157.8l-101.53-4.87a12 12 0 0 0-12.57 12v47.41a12 12 0 0 0 12 12h200.33a12 12 0 0 0 12-12V12a12 12 0 0 0-12-12z"></path>
</svg>
