<!-- <svg xmlns="http://www.w3.org/2000/svg"
     height="24"
     viewBox="0 0 24 24"
     width="24">
  <path d="M0 0h24v24H0z"
        fill="none" />
  <path d="M6 6h2v12H6zm3.5 6l8.5 6V6z" /></svg> -->


<svg aria-hidden="true"
     focusable="false"
     data-prefix="fas"
     data-icon="step-backward"
     role="img"
     xmlns="http://www.w3.org/2000/svg"
     height="24"
     width="24"
     viewBox="0 0 448 512">
  <path fill="currentColor"
        d="M64 468V44c0-6.6 5.4-12 12-12h48c6.6 0 12 5.4 12 12v176.4l195.5-181C352.1 22.3 384 36.6 384 64v384c0 27.4-31.9 41.7-52.5 24.6L136 292.7V468c0 6.6-5.4 12-12 12H76c-6.6 0-12-5.4-12-12z"></path>
</svg>
